<svg width="20" height="20" viewBox="0 0 20 20" fill="none" xmlns="http://www.w3.org/2000/svg">
<g transform="translate(2.8335 1.1665)"><path id="Vector" d="M0.5 5.5H13.8333M10.5 0.5V2.16667M3.83333 0.5V2.16667M3.16683 2.16667H11.1668C12.1003 2.16667 12.5666 2.16667 12.9232 2.34832C13.2368 2.50811 13.4921 2.7631 13.6519 3.0767C13.8335 3.43322 13.8333 3.89987 13.8333 4.83329V12.8333C13.8333 13.7667 13.8335 14.2335 13.6519 14.59C13.4921 14.9036 13.2368 15.1585 12.9232 15.3183C12.5666 15.5 12.1003 15.5 11.1668 15.5H3.16683C2.23341 15.5 1.76635 15.5 1.40983 15.3183C1.09623 15.1585 0.841445 14.9036 0.681656 14.59C0.5 14.2335 0.5 13.7667 0.5 12.8333V4.83329C0.5 3.89987 0.5 3.43322 0.681656 3.0767C0.841445 2.7631 1.09623 2.50811 1.40983 2.34832C1.76635 2.16667 2.23341 2.16667 3.16683 2.16667Z" stroke="white" stroke-linecap="round" stroke-linejoin="round"/></g>
</svg>
